<svg id="Layer_1" enable-background="new 0 0 64 64" height="512" viewBox="0 0 64 64" width="512" xmlns="http://www.w3.org/2000/svg"><path d="m54 34.015c0 5.36-2.18 9.83-5.99 12.97-.01.01-.01.02-.01.02-3.86 3.18-9.38 5.01-16 5.01s-12.14-1.83-16-5.01c0 0 0-.01-.01-.02-3.81-3.14-5.99-7.61-5.99-12.97 0-3.36 1.28-6.83 3.79-10.34-1.12-.88-3.79-3.76-3.79-11.14 0-.27.21-.49.47-.5.05 0 .24-.01.53-.02h.01c2.29-.09 10.98-.18 13.67 2.86.02.01.03.03.04.04 1.71-.55 3.42-.76 4.73-.89h5.13c1.31.13 3.02.34 4.72.89 0 0 .01.01.02.01h.01c2.46-2.64 9.97-2.91 12.94-2.91.29 0 .54 0 .74.01.25 0 .42.01.47.01.27.01.48.23.48.5 0 6.85-2.53 9.93-3.77 11.03 2.53 3.45 3.81 6.96 3.81 10.45z" fill="#ffb56d"/><path d="m15.002 22.506s-3-4.118-3-7.993c0 0 4.514 1.012 7.498 3.996 0 0-2.498 1.517-4.498 3.997" fill="#ff8a80"/><path d="m15.99 46.985c-3.81-3.14-5.99-7.61-5.99-12.97 0-3.36 1.28-6.83 3.79-10.34-1.75 3.61-2.37 6.86-2.37 9.85 0 7.55 4.3 13.12 4.57 13.46z" fill="#ffe0b2"/><path d="m48.998 22.506s3-4.118 3-7.993c0 0-4.514 1.012-7.498 3.996 0 0 2.498 1.517 4.498 3.997" fill="#ff8a80"/><g fill="#f2883f"><path d="m54 34.015c0 5.36-2.18 9.83-5.99 12.97.27-.34 4.57-5.91 4.57-13.46 0-2.99-.64-6.35-2.39-9.96 2.53 3.45 3.81 6.96 3.81 10.45z"/><path d="m53.01 12.025c-6.35 1.16-8.44 4.29-9.09 5.12-1.94-1.28-4.3-2.12-4.59-2.22 2.46-2.64 9.97-2.91 12.94-2.91.29 0 .73.01.74.01z"/><path d="m24.68 14.875v.05c-.25.08-2.64.92-4.6 2.22-.65-.83-2.73-3.98-9.07-5.13 2.29-.09 10.98-.18 13.67 2.86z"/></g><path d="m45 40c0 3.866-5.82 7-13 7s-13-3.134-13-7 5.82-7 13-7 13 3.134 13 7" fill="#ffe0b2"/><path d="m28 30.004c0 1.698-1.302 2-3 2s-3-.302-3-2 1.302-3 3-3 3 1.302 3 3z" fill="#fddf7f"/><path d="m42 30.004c0 1.698-1.302 2-3 2s-3-.302-3-2 1.302-3 3-3 3 1.302 3 3z" fill="#fddf7f"/><path d="m24.5 39.096c0 1.933-1.567 3.5-3.5 3.5s-3.5-1.567-3.5-3.5c0-3.417 3.5-6.5 3.5-6.5s3.5 3.084 3.5 6.5z" fill="#8ec3ff"/><path d="m36 34c0 2.41-3.6 4-4 4-.19 0-1.1-.36-2-1h-.01v-.01c-1-.69-1.99-1.73-1.99-2.99 0-2 2.26-2 4-2s4 0 4 2z" fill="#ff8a80"/><path d="m29.99 36.99c-1-.69-1.99-1.73-1.99-2.99 0-2 2.26-2 4-2 0 0-2.46.32-3 2s.84 2.87.99 2.99z" fill="#fff"/><path d="m39 32c1.122 0 3 0 3-1.992 0-1.654-1.346-3-3-3s-3 1.346-3 3c0 1.992 1.878 1.992 3 1.992zm0-3.992c1.102 0 2 .897 2 2 0 .732-.302.992-2 .992s-2-.26-2-.992c0-1.103.897-2 2-2z"/><path d="m25 32c1.122 0 3 0 3-1.992 0-1.654-1.346-3-3-3s-3 1.346-3 3c0 1.992 1.878 1.992 3 1.992zm0-3.992c1.102 0 2 .897 2 2 0 .732-.302.992-2 .992s-2-.26-2-.992c0-1.103.897-2 2-2z"/><path d="m7.553 37.739c.088.176.264.277.447.277.075 0 .152-.017.224-.053.694-.347 1.378-.651 2.048-.921 1.515 9.064 9.851 14.969 21.728 14.969s20.212-5.904 21.728-14.968c.671.27 1.355.574 2.048.92.071.036.148.053.224.053.183 0 .359-.101.447-.276.123-.247.023-.547-.224-.671-.793-.397-1.572-.739-2.333-1.04.072-.658.11-1.331.11-2.018 0-1.511-.255-3.027-.734-4.539 1.012-.441 2.027-.949 2.993-1.536.236-.144.31-.451.168-.687-.146-.237-.454-.31-.688-.167-.898.546-1.848 1.022-2.801 1.439-.635-1.66-1.547-3.315-2.751-4.955 1.243-1.1 3.775-4.183 3.775-11.038 0-.269-.213-.49-.482-.499-.463-.017-11.148-.361-14.161 2.89-1.714-.554-3.42-.771-4.736-.898-.271-.022-.519.174-.546.45-.026.275.175.519.45.545 2.025.196 3.47.482 4.831.958 1.182.413 2.527 1.074 4 1.966.08.049.17.072.259.072.149 0 .296-.067.394-.192.242-.309.529-.604.903-.931.209-.182.23-.498.049-.706-.182-.208-.498-.23-.705-.048-.289.251-.534.49-.749.729-1.12-.66-2.141-1.17-3.1-1.559 1.509-1.255 4.732-1.856 7.735-2.118-.615.246-1.238.538-1.842.899-.236.142-.314.449-.172.686.093.157.259.244.429.244.088 0 .176-.023.257-.071 2.367-1.415 5.056-1.787 6.181-1.884-.137 6.822-2.893 9.384-3.753 10.016-.108.08-.18.199-.199.331-.019.133.017.268.098.375 1.295 1.697 2.269 3.407 2.921 5.118-3.885 1.545-7.547 2.098-7.595 2.105-.273.04-.462.294-.423.567.036.248.249.427.493.427.024 0 .049-.001.073-.005.202-.029 3.839-.576 7.77-2.138.43 1.388.658 2.774.658 4.154 0 .562-.036 1.109-.086 1.649-4.557-1.62-8.143-1.652-8.407-1.652-.258-.019-.508.222-.507.501.001.276.225.499.5.499h.002c.072 0 3.717.023 8.27 1.671-1.358 8.671-9.349 14.332-20.772 14.332-11.424 0-19.416-5.662-20.773-14.335 2.968-1.078 5.534-1.462 7.015-1.596-.681 1.127-1.242 2.485-1.242 3.92 0 1.915 1.354 3.516 3.154 3.906 2.08 2.491 6.692 4.094 11.846 4.094 7.29 0 13-3.075 13-7 0-3.117-3.647-5.773-9.106-6.676-.177-.541-.581-.919-1.222-1.118-.679-.21-1.548-.207-2.523-.209h-.297c-.975.005-1.845-.001-2.523.209-.643.199-1.049.578-1.224 1.122-1.685.28-3.251.748-4.588 1.363-.981-1.491-2.102-2.493-2.185-2.567-.188-.167-.473-.167-.66 0-.07.062-.876.785-1.714 1.9-1.244.065-4.258.359-7.869 1.64-.053-.541-.089-1.09-.089-1.653 0-1.357.239-2.741.688-4.142 3.919 1.553 7.538 2.097 7.739 2.126.025.004.05.005.074.005.244 0 .457-.179.494-.428.039-.274-.149-.527-.423-.567-.048-.007-3.684-.554-7.555-2.088.651-1.669 1.611-3.362 2.883-5.068.087-.116.117-.266.086-.408s-.124-.264-.252-.333c-.037-.02-3.576-2.027-3.728-10.05 1.123.095 3.875.467 6.248 1.886.081.048.169.071.257.071.17 0 .336-.087.429-.243.143-.237.064-.545-.172-.686-.689-.412-1.406-.738-2.11-1.002 3.111.217 6.516.811 8.04 2.207-.941.381-1.944.886-3.097 1.567-.234-.26-.497-.494-.754-.721-.208-.184-.523-.165-.706.042-.184.207-.164.523.042.706.343.304.666.591.891.913.098.138.252.213.41.213.089 0 .179-.023.259-.072 1.541-.934 2.802-1.559 3.969-1.966 1.36-.476 2.807-.762 4.834-.958.275-.026.477-.271.45-.545-.026-.275-.272-.471-.546-.45-1.315.127-3.018.343-4.726.894-2.998-3.485-13.781-2.914-14.253-2.886-.264.014-.471.233-.471.498 0 7.387 2.674 10.265 3.792 11.146-1.171 1.632-2.062 3.256-2.692 4.866-.966-.42-1.929-.904-2.84-1.457-.234-.142-.543-.069-.688.167-.143.236-.068.544.168.687.976.593 2.001 1.105 3.023 1.549-.498 1.526-.763 3.039-.763 4.527 0 .689.038 1.362.11 2.021-.761.3-1.541.64-2.333 1.037-.248.123-.347.424-.224.67zm22.072-4.578c.503-.156 1.268-.164 2.087-.164h.14.297c.886-.001 1.695-.001 2.227.164.455.141.624.368.624.836 0 1.521-2.53 2.945-2.981 3.001-.501-.066-3.019-1.477-3.019-3.001 0-.468.169-.695.625-.836zm-1.593 1.197c.269 1.713 2.367 3.116 3.468 3.519v1.189c-3.349.182-5.269 2.012-5.353 2.095-.195.194-.197.511-.002.707.098.099.226.148.355.148.127 0 .255-.048.352-.145.019-.019 1.892-1.839 5.163-1.839 3.221 0 5.131 1.823 5.15 1.842.197.193.514.189.706-.008.193-.197.19-.512-.006-.706-.084-.083-2.027-1.921-5.366-2.095v-1.181c1.111-.391 3.21-1.778 3.469-3.531 4.756.843 8.032 3.121 8.032 5.647 0 3.252-5.495 6-12 6-4.296 0-8.289-1.2-10.419-3.059 1.929-.284 3.419-1.934 3.419-3.941 0-1.238-.419-2.418-.971-3.444 1.174-.528 2.535-.936 4.003-1.198zm-7.032-1.166c.842.846 3 3.263 3 5.808 0 1.654-1.346 3-3 3s-3-1.346-3-3c0-2.545 2.158-4.961 3-5.808z"/><path d="m31.53 15.015h.01l.46-.004c.168 0 .336.002.506.006h.012c.271 0 .494-.216.5-.489.006-.276-.213-.505-.489-.511-.177-.004-.353-.006-.528-.006l-.48.004c-.275.005-.495.233-.49.509.004.273.228.491.499.491z"/><path d="m27.916 23.224c-.153-.232-.465-.292-.692-.14-2.816 1.872-5.701 1.933-5.729 1.933-.276.004-.497.231-.494.506.004.274.227.494.5.494h.006c.129-.001 3.198-.058 6.271-2.1.229-.153.291-.463.138-.693z"/><path d="m42.494 26.017h.006c.273 0 .496-.22.5-.494.003-.276-.218-.502-.494-.506-.028 0-2.913-.061-5.729-1.933-.228-.151-.54-.091-.692.14-.153.23-.091.541.14.693 3.071 2.042 6.14 2.099 6.269 2.1z"/></svg>