<svg id="Layer_1" enable-background="new 0 0 64 64" height="512" viewBox="0 0 64 64" width="512" xmlns="http://www.w3.org/2000/svg"><path d="m54 34.015c0 5.36-2.18 9.83-5.99 12.97-.01.01-.01.02-.01.02-3.86 3.18-9.38 5.01-16 5.01s-12.14-1.83-16-5.01c0 0 0-.01-.01-.02-3.81-3.14-5.99-7.61-5.99-12.97 0-3.36 1.28-6.83 3.79-10.34-1.12-.88-3.79-3.76-3.79-11.14 0-.27.21-.49.47-.5.05 0 .24-.01.53-.02h.01c2.29-.09 10.98-.18 13.67 2.86.02.01.03.03.04.04 1.71-.55 3.42-.76 4.73-.89h5.13c1.31.13 3.02.34 4.72.89 0 0 .01.01.02.01h.01c2.46-2.64 9.97-2.91 12.94-2.91.29 0 .54 0 .74.01.25 0 .42.01.47.01.27.01.48.23.48.5 0 6.85-2.53 9.93-3.77 11.03 2.53 3.45 3.81 6.96 3.81 10.45z" fill="#ffb56d"/><path d="m15.002 22.506s-3-4.118-3-7.993c0 0 4.514 1.012 7.498 3.996 0 0-2.498 1.517-4.498 3.997" fill="#ff8a80"/><path d="m15.99 46.985c-3.81-3.14-5.99-7.61-5.99-12.97 0-3.36 1.28-6.83 3.79-10.34-1.75 3.61-2.37 6.86-2.37 9.85 0 7.55 4.3 13.12 4.57 13.46z" fill="#ffe0b2"/><path d="m48.998 22.506s3-4.118 3-7.993c0 0-4.514 1.012-7.498 3.996 0 0 2.498 1.517 4.498 3.997" fill="#ff8a80"/><g fill="#f2883f"><path d="m54 34.015c0 5.36-2.18 9.83-5.99 12.97.27-.34 4.57-5.91 4.57-13.46 0-2.99-.64-6.35-2.39-9.96 2.53 3.45 3.81 6.96 3.81 10.45z"/><path d="m53.01 12.025c-6.35 1.16-8.44 4.29-9.09 5.12-1.94-1.28-4.3-2.12-4.59-2.22 2.46-2.64 9.97-2.91 12.94-2.91.29 0 .73.01.74.01z"/><path d="m24.68 14.875v.05c-.25.08-2.64.92-4.6 2.22-.65-.83-2.73-3.98-9.07-5.13 2.29-.09 10.98-.18 13.67 2.86z"/></g><path d="m45 40c0 3.866-5.82 7-13 7s-13-3.134-13-7 5.82-7 13-7 13 3.134 13 7" fill="#ffe0b2"/><path d="m39.516 37.542s-3.141 1.984-7.516 1.984-7.5-1.984-7.5-1.984 1.041 5.97 7.5 5.97 7.516-5.97 7.516-5.97z" fill="#fff"/><path d="m36 34c0 2.41-3.6 4-4 4-.19 0-1.1-.36-2-1h-.01v-.01c-1-.69-1.99-1.73-1.99-2.99 0-2 2.26-2 4-2s4 0 4 2z" fill="#ff8a80"/><path d="m29.99 36.99c-1-.69-1.99-1.73-1.99-2.99 0-2 2.26-2 4-2 0 0-2.46.32-3 2s.84 2.87.99 2.99z" fill="#fff"/><path d="m56.224 37.068c-.793-.397-1.573-.739-2.333-1.04.071-.657.109-1.33.109-2.017 0-1.51-.255-3.024-.732-4.535 1.012-.444 2.026-.954 2.992-1.54.236-.144.311-.451.168-.688-.146-.236-.454-.31-.688-.168-.898.546-1.847 1.024-2.799 1.443-.635-1.662-1.548-3.318-2.753-4.959 1.243-1.1 3.775-4.183 3.775-11.038 0-.27-.213-.49-.482-.5-.463-.015-11.148-.361-14.161 2.891-1.714-.554-3.42-.771-4.736-.898-.271-.014-.519.175-.546.45-.026.274.175.519.45.546 2.025.195 3.47.481 4.831.957 1.179.412 2.524 1.074 4 1.967.08.049.17.072.259.072.148 0 .296-.066.394-.191.243-.31.53-.605.903-.932.209-.182.23-.497.049-.705-.182-.211-.498-.231-.705-.049-.289.251-.533.489-.749.729-1.121-.66-2.142-1.171-3.1-1.558 1.508-1.253 4.725-1.851 7.724-2.113-.611.245-1.23.536-1.831.895-.236.142-.314.448-.172.686.093.156.259.243.429.243.088 0 .176-.022.257-.071 2.367-1.415 5.056-1.787 6.181-1.884-.137 6.824-2.894 9.385-3.753 10.016-.108.08-.18.199-.199.332s.017.268.098.375c1.296 1.699 2.272 3.411 2.923 5.124-3.888 1.561-7.554 2.144-7.602 2.151-.272.042-.46.298-.418.57.038.247.251.424.493.424.025 0 .052-.002.077-.006.201-.031 3.838-.606 7.768-2.183.428 1.385.655 2.77.655 4.147 0 .562-.036 1.109-.086 1.649-4.559-1.62-8.146-1.652-8.407-1.652-.004 0-.006 0-.008 0-.276.001-.5.226-.499.501.001.276.225.499.5.499h.001.001c.072 0 3.717.024 8.27 1.671-1.358 8.671-9.349 14.332-20.772 14.332s-19.414-5.661-20.772-14.332c4.557-1.647 8.214-1.671 8.271-1.671h.001c.275 0 .499-.224.5-.499 0-.275-.223-.5-.499-.501-.137-.013-3.78.003-8.415 1.652-.05-.541-.086-1.088-.086-1.649 0-1.355.238-2.736.686-4.135 3.919 1.567 7.537 2.14 7.738 2.171.025.004.052.006.077.006.242 0 .455-.177.493-.424.042-.272-.146-.528-.418-.57-.048-.007-3.689-.585-7.561-2.134.651-1.671 1.612-3.366 2.885-5.074.088-.117.12-.268.087-.41-.032-.144-.126-.265-.257-.332-.036-.019-3.574-1.959-3.724-10.05 1.12.094 3.867.463 6.248 1.886.081.049.169.071.257.071.17 0 .336-.087.429-.243.143-.237.064-.544-.172-.686-.689-.412-1.405-.739-2.107-1.003 3.111.217 6.515.811 8.039 2.207-.939.38-1.944.886-3.097 1.567-.235-.262-.498-.495-.754-.722-.208-.185-.522-.165-.706.042s-.164.523.042.706c.326.289.664.588.892.913.097.138.251.213.409.213.089 0 .179-.023.259-.072 1.543-.935 2.804-1.56 3.969-1.967 1.36-.476 2.807-.762 4.834-.957.275-.027.477-.271.45-.546-.026-.275-.272-.463-.546-.45-1.315.127-3.018.344-4.726.895-2.998-3.486-13.781-2.911-14.253-2.886-.266.015-.473.235-.473.499 0 7.387 2.674 10.266 3.792 11.146-1.172 1.633-2.063 3.259-2.693 4.87-.965-.423-1.929-.908-2.839-1.461-.234-.141-.543-.068-.688.168-.143.236-.068.544.168.688.975.592 2 1.106 3.022 1.553-.497 1.524-.762 3.035-.762 4.521 0 .688.038 1.36.109 2.018-.76.301-1.541.644-2.333 1.04-.247.124-.347.424-.224.671.089.174.265.276.448.276.075 0 .152-.017.224-.053.693-.347 1.377-.65 2.048-.92 1.516 9.064 9.851 14.968 21.728 14.968s20.212-5.904 21.728-14.968c.671.27 1.355.573 2.048.92.071.036.148.053.224.053.183 0 .359-.102.447-.276.123-.248.024-.548-.223-.672z"/><path d="m34.672 32.206c-.677-.21-1.524-.202-2.522-.209h-.299c-.998-.003-1.846-.001-2.522.209-.641.198-1.046.577-1.222 1.119-5.46.902-9.107 3.558-9.107 6.675 0 3.925 5.71 7 13 7s13-3.075 13-7c0-3.117-3.647-5.773-9.106-6.675-.176-.542-.581-.921-1.222-1.119zm-5.048.955c.503-.156 1.267-.164 2.084-.164h.142.301c.851.001 1.693-.001 2.226.164.454.141.623.367.623.836 0 1.521-2.53 2.944-2.98 3.001-.502-.066-3.02-1.477-3.02-3.001 0-.469.169-.695.624-.836zm3.875 8.823c.024 0 .049-.002.073-.005 1.871-.273 3.268-1.032 4.276-1.822-.986 1.427-2.747 2.883-5.848 2.883-3.103 0-4.861-1.458-5.841-2.885 1.011.795 2.409 1.55 4.285 1.824.024.003.049.005.073.005.244 0 .458-.179.494-.428.039-.273-.149-.527-.423-.567-2.011-.293-3.407-1.202-4.316-2.048 1.378.534 3.366 1.085 5.728 1.085 2.369 0 4.366-.555 5.75-1.091-.902.839-2.306 1.76-4.322 2.053-.273.04-.462.294-.423.567.036.251.25.429.494.429zm10.501-1.984c0 3.252-5.495 6-12 6s-12-2.748-12-6c0-2.526 3.277-4.805 8.031-5.649.264 1.716 2.366 3.123 3.469 3.526v1.136c-3.905-.142-6.703-1.875-6.732-1.893-.167-.104-.381-.104-.545.008-.165.109-.249.306-.215.501.011.063 1.191 6.413 7.992 6.413 6.8 0 7.997-6.349 8.008-6.412.034-.195-.05-.392-.214-.502-.165-.111-.379-.114-.545-.008-.029.018-2.842 1.752-6.749 1.893v-1.13c1.112-.391 3.211-1.778 3.469-3.532 4.755.844 8.031 3.123 8.031 5.649z"/><path d="m41.99 25.373c-.088-.262-.37-.402-.633-.316-3.125 1.042-5.186 4.058-5.272 4.186-.138.205-.105.48.077.647.096.088.217.132.338.132.111 0 .223-.037.314-.111.024-.019 2.412-1.911 6.686-1.911.276 0 .5-.224.5-.5s-.224-.5-.5-.5c-1.985 0-3.594.377-4.792.814.79-.706 1.804-1.422 2.966-1.809.262-.087.403-.37.316-.632z"/><path d="m20 27.5c0 .276.224.5.5.5 4.25 0 6.663 1.892 6.687 1.911.092.073.202.109.313.109.121 0 .243-.044.338-.132.182-.167.215-.441.077-.646-.087-.128-2.147-3.144-5.272-4.186-.261-.086-.544.055-.633.316-.087.262.055.545.316.633 1.162.387 2.176 1.103 2.966 1.809-1.198-.437-2.807-.814-4.792-.814-.276 0-.5.224-.5.5z"/><path d="m31.53 15.015h.01l.46-.004c.168 0 .336.002.506.006h.012c.271 0 .494-.217.5-.489.006-.275-.213-.505-.489-.511-.177-.004-.353-.006-.528-.006l-.479.004c-.275.005-.495.233-.49.51.003.272.226.49.498.49z"/></svg>