<svg id="Layer_1" enable-background="new 0 0 64 64" height="512" viewBox="0 0 64 64" width="512" xmlns="http://www.w3.org/2000/svg"><path d="m54 34.015c0 5.36-2.18 9.83-5.99 12.97-.01.01-.01.02-.01.02-3.86 3.18-9.38 5.01-16 5.01s-12.14-1.83-16-5.01c0 0 0-.01-.01-.02-3.81-3.14-5.99-7.61-5.99-12.97 0-3.36 1.28-6.83 3.79-10.34-1.12-.88-3.79-3.76-3.79-11.14 0-.27.21-.49.47-.5.05 0 .24-.01.53-.02h.01c2.29-.09 10.98-.18 13.67 2.86.02.01.03.03.04.04 1.71-.55 3.42-.76 4.73-.89h5.13c1.31.13 3.02.34 4.72.89 0 0 .01.01.02.01h.01c2.46-2.64 9.97-2.91 12.94-2.91.29 0 .54 0 .74.01.25 0 .42.01.47.01.27.01.48.23.48.5 0 6.85-2.53 9.93-3.77 11.03 2.53 3.45 3.81 6.96 3.81 10.45z" fill="#ffb56d"/><path d="m15.002 22.506s-3-4.118-3-7.993c0 0 4.514 1.012 7.498 3.996 0 0-2.498 1.517-4.498 3.997" fill="#ff8a80"/><path d="m15.99 46.985c-3.81-3.14-5.99-7.61-5.99-12.97 0-3.36 1.28-6.83 3.79-10.34-1.75 3.61-2.37 6.86-2.37 9.85 0 7.55 4.3 13.12 4.57 13.46z" fill="#ffe0b2"/><path d="m48.998 22.506s3-4.118 3-7.993c0 0-4.514 1.012-7.498 3.996 0 0 2.498 1.517 4.498 3.997" fill="#ff8a80"/><g fill="#f2883f"><path d="m54 34.015c0 5.36-2.18 9.83-5.99 12.97.27-.34 4.57-5.91 4.57-13.46 0-2.99-.64-6.35-2.39-9.96 2.53 3.45 3.81 6.96 3.81 10.45z"/><path d="m53.01 12.025c-6.35 1.16-8.44 4.29-9.09 5.12-1.94-1.28-4.3-2.12-4.59-2.22 2.46-2.64 9.97-2.91 12.94-2.91.29 0 .73.01.74.01z"/><path d="m24.68 14.875v.05c-.25.08-2.64.92-4.6 2.22-.65-.83-2.73-3.98-9.07-5.13 2.29-.09 10.98-.18 13.67 2.86z"/></g><path d="m45 40c0 3.866-5.82 7-13 7s-13-3.134-13-7 5.82-7 13-7 13 3.134 13 7" fill="#ffe0b2"/><path d="m36 34c0 2.41-3.6 4-4 4-.19 0-1.1-.36-2-1h-.01v-.01c-1-.69-1.99-1.73-1.99-2.99 0-2 2.26-2 4-2s4 0 4 2z" fill="#ff8a80"/><path d="m29.99 36.99c-1-.69-1.99-1.73-1.99-2.99 0-2 2.26-2 4-2 0 0-2.46.32-3 2s.84 2.87.99 2.99z" fill="#fff"/><path d="m8 38.016c.075 0 .152-.017.224-.053.693-.347 1.377-.65 2.048-.92 1.516 9.064 9.851 14.968 21.728 14.968s20.212-5.904 21.728-14.968c.671.27 1.355.573 2.048.92.071.036.148.053.224.053.183 0 .359-.101.447-.276.123-.247.023-.547-.224-.671-.793-.397-1.572-.739-2.333-1.04.072-.658.11-1.33.11-2.018 0-1.51-.255-3.024-.732-4.535 1.012-.444 2.026-.954 2.992-1.54.236-.143.31-.451.168-.688-.146-.236-.454-.309-.688-.168-.898.546-1.847 1.024-2.799 1.443-.635-1.662-1.548-3.318-2.753-4.959 1.243-1.1 3.775-4.183 3.775-11.038 0-.27-.213-.49-.482-.5-.463-.015-11.148-.361-14.161 2.891-1.714-.554-3.42-.771-4.736-.898-.271-.017-.519.175-.546.45-.026.274.175.519.45.546 2.025.195 3.47.482 4.831.957 1.179.412 2.525 1.074 4 1.967.08.049.17.072.259.072.149 0 .296-.066.394-.191.243-.309.53-.605.903-.932.209-.182.23-.497.049-.705-.182-.211-.498-.231-.705-.049-.289.251-.533.489-.749.729-1.121-.66-2.142-1.171-3.1-1.559 1.508-1.253 4.726-1.851 7.725-2.114-.612.245-1.231.536-1.832.896-.236.142-.314.448-.172.686.093.156.259.243.429.243.088 0 .176-.022.257-.071 2.368-1.415 5.056-1.787 6.181-1.884-.137 6.823-2.894 9.385-3.753 10.016-.108.08-.18.199-.199.332s.017.268.098.375c1.296 1.699 2.272 3.411 2.923 5.124-3.888 1.561-7.554 2.144-7.602 2.151-.272.042-.46.298-.418.57.038.247.251.424.493.424.025 0 .052-.002.077-.006.201-.031 3.838-.606 7.769-2.183.427 1.387.654 2.771.654 4.148 0 .562-.036 1.109-.087 1.649-4.559-1.62-8.146-1.652-8.407-1.652-.004 0-.006 0-.008 0-.276.001-.5.226-.499.501.001.276.225.499.5.499h.001.001c.072 0 3.717.024 8.27 1.671-1.357 8.671-9.348 14.332-20.771 14.332s-19.414-5.661-20.772-14.332c4.557-1.647 8.214-1.671 8.271-1.671h.001c.275 0 .499-.224.5-.499 0-.275-.223-.5-.499-.501-.138.012-3.78.013-8.415 1.655-.05-.542-.086-1.09-.086-1.652 0-1.355.238-2.736.686-4.135 3.919 1.567 7.537 2.14 7.738 2.171.025.004.052.006.077.006.242 0 .455-.177.493-.424.042-.273-.146-.528-.418-.57-.048-.007-3.689-.585-7.561-2.134.651-1.671 1.612-3.366 2.885-5.074.088-.117.12-.268.087-.41-.032-.143-.126-.265-.257-.332-.036-.02-3.574-1.959-3.724-10.05 1.12.094 3.867.463 6.248 1.886.081.049.169.071.257.071.17 0 .336-.087.429-.243.143-.237.064-.544-.172-.686-.69-.412-1.407-.74-2.11-1.004 3.112.217 6.517.812 8.041 2.208-.939.38-1.944.886-3.097 1.567-.235-.262-.498-.495-.754-.722-.208-.185-.523-.165-.706.042-.184.207-.164.523.042.706.326.289.664.588.892.913.097.138.251.213.409.213.089 0 .179-.023.259-.072 1.543-.935 2.804-1.56 3.969-1.967 1.36-.476 2.807-.762 4.834-.957.275-.027.477-.271.45-.546-.026-.275-.272-.466-.546-.45-1.315.127-3.018.344-4.726.894-2.998-3.485-13.781-2.911-14.253-2.886-.265.016-.472.236-.472.5 0 7.387 2.674 10.266 3.792 11.146-1.172 1.633-2.063 3.259-2.693 4.87-.966-.423-1.929-.908-2.839-1.461-.234-.141-.543-.068-.688.168-.143.236-.068.544.168.688.975.593 2 1.106 3.022 1.553-.497 1.524-.762 3.035-.762 4.521 0 .688.038 1.361.109 2.019-.761.3-1.541.643-2.333 1.039-.247.124-.347.424-.224.671.089.174.265.276.448.276z"/><path d="m39 32.008c2.74 0 3.895-2.159 3.943-2.251.127-.244.032-.544-.211-.672-.244-.129-.546-.035-.675.209-.037.069-.937 1.714-3.057 1.714s-3.021-1.644-3.057-1.712c-.128-.247-.432-.339-.674-.213-.245.127-.341.43-.213.674.048.092 1.204 2.251 3.944 2.251z"/><path d="m25 32.008c2.74 0 3.895-2.159 3.943-2.251.127-.244.032-.544-.211-.672-.243-.129-.546-.035-.675.209-.037.069-.937 1.714-3.057 1.714s-3.021-1.644-3.057-1.712c-.128-.247-.433-.339-.674-.213-.245.127-.341.43-.213.674.048.092 1.204 2.251 3.944 2.251z"/><path d="m32.149 31.997h-.299c-.998-.002-1.846-.001-2.522.209-.641.198-1.046.577-1.222 1.118-5.459.903-9.106 3.559-9.106 6.676 0 3.925 5.71 7 13 7s13-3.075 13-7c0-3.117-3.647-5.773-9.106-6.675-.176-.542-.581-.92-1.222-1.118-.677-.211-1.525-.202-2.523-.21zm11.851 8.003c0 3.252-5.495 6-12 6s-12-2.748-12-6c0-2.526 3.277-4.805 8.031-5.649.265 1.716 2.366 3.123 3.469 3.526v2.136c-3.905-.142-6.703-1.875-6.732-1.894-.234-.146-.543-.076-.689.155-.147.233-.079.542.154.69.132.084 3.299 2.063 7.768 2.063s7.649-1.978 7.782-2.062c.233-.147.304-.456.156-.689-.146-.232-.453-.302-.689-.156-.029.018-2.842 1.752-6.749 1.893v-2.13c1.112-.391 3.211-1.778 3.469-3.532 4.754.844 8.03 3.123 8.03 5.649zm-9-6.003c0 1.521-2.53 2.944-2.981 3.001-.501-.066-3.019-1.477-3.019-3.001 0-.469.169-.695.624-.836.503-.156 1.267-.164 2.084-.164h.142.301c.851.001 1.693-.001 2.226.164.454.141.623.367.623.836z"/><path d="m34.779 42.095c-.232-.142-.537-.068-.685.16-.019.029-.491.729-2.095.729-1.576 0-2.039-.676-2.068-.722-.139-.234-.439-.316-.676-.184-.241.135-.327.439-.192.681.07.125.747 1.225 2.937 1.225 2.184 0 2.882-1.093 2.954-1.218.136-.234.057-.529-.175-.671z"/><path d="m32.528 14.017c-.177-.004-.353-.006-.528-.006l-.48.004c-.275.005-.495.233-.49.51.005.273.227.49.5.49h.01l.46-.004c.168 0 .336.002.506.006h.012c.271 0 .494-.217.5-.489.005-.276-.213-.505-.49-.511z"/></svg>