<svg id="Layer_1" enable-background="new 0 0 64 64" height="512" viewBox="0 0 64 64" width="512" xmlns="http://www.w3.org/2000/svg"><path d="m54 34.015c0 5.36-2.18 9.83-5.99 12.97-.01.01-.01.02-.01.02-3.86 3.18-9.38 5.01-16 5.01s-12.14-1.83-16-5.01c0 0 0-.01-.01-.02-3.81-3.14-5.99-7.61-5.99-12.97 0-3.36 1.28-6.83 3.79-10.34-1.12-.88-3.79-3.76-3.79-11.14 0-.27.21-.49.47-.5.05 0 .24-.01.53-.02h.01c2.29-.09 10.98-.18 13.67 2.86.02.01.03.03.04.04 1.71-.55 3.42-.76 4.73-.89h5.13c1.31.13 3.02.34 4.72.89 0 0 .01.01.02.01h.01c2.46-2.64 9.97-2.91 12.94-2.91.29 0 .54 0 .74.01.25 0 .42.01.47.01.27.01.48.23.48.5 0 6.85-2.53 9.93-3.77 11.03 2.53 3.45 3.81 6.96 3.81 10.45z" fill="#ffb56d"/><path d="m15.002 22.506s-3-4.118-3-7.993c0 0 4.514 1.012 7.498 3.996 0 0-2.498 1.517-4.498 3.997" fill="#ff8a80"/><path d="m15.99 46.985c-3.81-3.14-5.99-7.61-5.99-12.97 0-3.36 1.28-6.83 3.79-10.34-1.75 3.61-2.37 6.86-2.37 9.85 0 7.55 4.3 13.12 4.57 13.46z" fill="#ffe0b2"/><path d="m48.998 22.506s3-4.118 3-7.993c0 0-4.514 1.012-7.498 3.996 0 0 2.498 1.517 4.498 3.997" fill="#ff8a80"/><g fill="#f2883f"><path d="m54 34.015c0 5.36-2.18 9.83-5.99 12.97.27-.34 4.57-5.91 4.57-13.46 0-2.99-.64-6.35-2.39-9.96 2.53 3.45 3.81 6.96 3.81 10.45z"/><path d="m53.01 12.025c-6.35 1.16-8.44 4.29-9.09 5.12-1.94-1.28-4.3-2.12-4.59-2.22 2.46-2.64 9.97-2.91 12.94-2.91.29 0 .73.01.74.01z"/><path d="m24.68 14.875v.05c-.25.08-2.64.92-4.6 2.22-.65-.83-2.73-3.98-9.07-5.13 2.29-.09 10.98-.18 13.67 2.86z"/></g><path d="m45 40c0 3.866-5.82 7-13 7s-13-3.134-13-7 5.82-7 13-7 13 3.134 13 7" fill="#ffe0b2"/><path d="m36.562 28.5c-.039.176-.06.36-.06.548 0 1.381 1.119 2.5 2.5 2.5s2.5-1.119 2.5-2.5c0-.766-.344-1.451-.887-1.91z" fill="#fddf7f"/><path d="m23.408 27.138c-.543.459-.887 1.145-.887 1.91 0 1.381 1.119 2.5 2.5 2.5s2.5-1.119 2.5-2.5c0-.188-.021-.372-.061-.548z" fill="#fddf7f"/><path d="m36 34c0 2.41-3.6 4-4 4-.19 0-1.1-.36-2-1h-.01v-.01c-1-.69-1.99-1.73-1.99-2.99 0-2 2.26-2 4-2s4 0 4 2z" fill="#ff8a80"/><path d="m29.99 36.99c-1-.69-1.99-1.73-1.99-2.99 0-2 2.26-2 4-2 0 0-2.46.32-3 2s.84 2.87.99 2.99z" fill="#fff"/><path d="m32 47c7.29 0 13-3.075 13-7 0-3.117-3.647-5.773-9.106-6.676-.177-.541-.581-.919-1.222-1.118-.679-.21-1.548-.206-2.523-.209h-.297c-.975.005-1.845-.001-2.523.209-.641.199-1.046.577-1.222 1.118-5.46.903-9.107 3.559-9.107 6.676 0 3.925 5.71 7 13 7zm-2.375-13.839c.503-.156 1.268-.164 2.087-.164h.14.297c.886 0 1.695-.001 2.227.164.455.141.624.368.624.836 0 1.521-2.53 2.945-2.981 3.001-.501-.066-3.019-1.477-3.019-3.001 0-.468.169-.695.625-.836zm-1.593 1.19c.175 1.135 1.153 2.134 2.117 2.798-3.462.423-5.801 1.871-5.915 1.943-.234.148-.304.457-.157.69.095.15.258.233.424.233.091 0 .183-.025.266-.077.03-.019 3.082-1.907 7.249-1.907 4.166 0 7.202 1.888 7.232 1.907.235.148.544.078.689-.155.148-.233.079-.542-.154-.689-.112-.072-2.441-1.521-5.899-1.944.957-.658 1.915-1.649 2.085-2.798 4.755.844 8.031 3.122 8.031 5.648 0 3.252-5.495 6-12 6s-12-2.748-12-6c0-2.526 3.277-4.805 8.032-5.649z"/><path d="m32 41.984c2.184 0 2.882-1.093 2.954-1.218.136-.234.057-.53-.175-.672-.232-.141-.537-.067-.685.16-.019.03-.491.73-2.095.73-1.576 0-2.039-.676-2.068-.722-.139-.235-.439-.315-.676-.184-.241.135-.327.439-.192.68.071.127.747 1.226 2.937 1.226z"/><path d="m43.439 26.007c-1.069.178-2.046.388-2.929.614-.014.002-.026.006-.039.01-4.061 1.042-6.142 2.403-6.247 2.473-.22.146-.288.439-.154.668.135.229.425.311.658.193l1.287-.655c.146 1.518 1.43 2.709 2.986 2.709 1.654 0 3-1.346 3-3 0-.58-.167-1.139-.472-1.616.646-.149 1.337-.288 2.073-.411.273-.045.457-.303.411-.575-.044-.271-.306-.458-.574-.41zm-4.437 5.013c-1.103 0-2-.897-2-2 0-.063.003-.127.009-.191.893-.371 2.049-.785 3.464-1.162.338.367.527.848.527 1.354 0 1.102-.898 1.999-2 1.999z"/><path d="m23.513 26.621c-.883-.226-1.859-.435-2.929-.614-.267-.047-.529.139-.575.411s.139.53.411.575c.736.122 1.428.262 2.073.411-.305.477-.472 1.036-.472 1.616 0 1.654 1.346 3 3 3 1.557 0 2.84-1.191 2.986-2.709l1.287.655c.233.119.524.036.658-.193s.066-.522-.154-.668c-.105-.07-2.187-1.432-6.247-2.473-.012-.006-.025-.009-.038-.011zm3.508 2.399c0 1.103-.897 2-2 2s-2-.897-2-2c0-.505.189-.986.527-1.354 1.415.377 2.571.792 3.464 1.162.007.064.009.128.009.192z"/><path d="m34.016 23.518c.001-.276-.222-.5-.498-.501-.001 0-.001 0-.002 0-.275 0-.498.222-.5.497 0 .091.001 2.241 1.138 3.345.097.094.222.141.348.141.13 0 .261-.051.358-.151.192-.198.188-.515-.01-.707-.689-.67-.835-2.121-.834-2.624z"/><path d="m29.864 26.858c1.137-1.104 1.138-3.254 1.138-3.345-.002-.275-.225-.497-.5-.497-.314-.007-.501.225-.5.501.001.503-.146 1.955-.835 2.624-.198.192-.202.509-.01.707.098.101.229.152.359.152.126 0 .251-.047.348-.142z"/><path d="m8 38.016c.075 0 .152-.017.224-.053.693-.347 1.377-.65 2.048-.92 1.516 9.064 9.851 14.968 21.728 14.968s20.212-5.904 21.728-14.968c.671.27 1.355.574 2.048.92.071.036.148.053.224.053.183 0 .359-.101.447-.276.123-.247.023-.547-.224-.671-.793-.397-1.572-.739-2.333-1.04.072-.658.11-1.331.11-2.018 0-1.511-.255-3.027-.734-4.539 1.012-.441 2.027-.949 2.993-1.536.236-.144.31-.451.168-.687-.146-.237-.454-.31-.688-.167-.898.546-1.848 1.022-2.801 1.439-.635-1.66-1.547-3.315-2.751-4.955 1.243-1.1 3.775-4.183 3.775-11.038 0-.269-.213-.49-.482-.499-.463-.018-11.148-.361-14.161 2.89-1.714-.554-3.42-.771-4.736-.898-.271-.019-.519.174-.546.45-.026.275.175.519.45.545 2.025.196 3.47.482 4.831.958 1.182.413 2.527 1.074 4 1.966.08.049.17.072.259.072.149 0 .296-.067.394-.192.242-.309.529-.604.903-.931.209-.182.23-.498.049-.706-.182-.208-.498-.23-.705-.048-.289.251-.534.49-.749.729-1.12-.66-2.141-1.17-3.1-1.559 1.509-1.255 4.732-1.856 7.735-2.118-.615.246-1.238.538-1.842.899-.236.142-.314.449-.172.686.093.157.259.244.429.244.088 0 .176-.023.257-.071 2.367-1.415 5.056-1.787 6.181-1.884-.137 6.822-2.893 9.384-3.753 10.016-.108.08-.18.199-.199.331-.019.133.017.268.098.375 1.295 1.697 2.269 3.407 2.921 5.118-3.885 1.545-7.547 2.097-7.595 2.104-.273.04-.462.294-.423.567.036.248.249.428.493.428.024 0 .049-.002.073-.005.202-.029 3.839-.575 7.77-2.137.43 1.387.658 2.773.658 4.153 0 .562-.036 1.109-.086 1.649-4.557-1.62-8.143-1.652-8.407-1.652-.258-.016-.508.222-.507.501.001.276.225.499.5.499h.002c.072 0 3.717.023 8.27 1.671-1.358 8.671-9.349 14.332-20.772 14.332s-19.414-5.66-20.772-14.332c4.556-1.647 8.212-1.671 8.27-1.671h.001s0 0 .001 0c.275 0 .499-.223.5-.499.001-.279-.254-.524-.507-.501-.264 0-3.85.032-8.407 1.652-.05-.541-.086-1.088-.086-1.649 0-1.356.239-2.739.688-4.139 3.919 1.558 7.537 2.114 7.738 2.144.025.003.05.005.075.005.243 0 .456-.178.493-.426.041-.273-.147-.527-.42-.568-.049-.007-3.685-.566-7.557-2.106.652-1.67 1.612-3.363 2.885-5.071.086-.117.116-.266.085-.408s-.124-.264-.252-.333c-.037-.02-3.576-2.027-3.728-10.05 1.123.095 3.875.467 6.248 1.886.081.048.169.071.257.071.17 0 .336-.087.429-.243.143-.237.064-.545-.172-.686-.688-.411-1.404-.738-2.107-1.001 3.11.217 6.513.811 8.038 2.206-.941.381-1.944.886-3.096 1.567-.234-.26-.497-.494-.754-.721-.208-.183-.523-.165-.706.042-.184.207-.164.523.042.706.343.304.666.591.891.913.098.138.252.213.41.213.089 0 .179-.023.259-.072 1.541-.934 2.802-1.559 3.969-1.966 1.36-.476 2.807-.762 4.834-.958.275-.026.477-.271.45-.545-.026-.276-.272-.467-.546-.45-1.315.127-3.018.343-4.726.894-3-3.488-13.784-2.915-14.255-2.888-.265.015-.472.234-.472.499 0 7.387 2.674 10.265 3.792 11.146-1.172 1.632-2.062 3.257-2.692 4.868-.965-.422-1.929-.906-2.84-1.459-.234-.142-.543-.069-.688.167-.143.236-.068.544.168.687.975.593 2.001 1.105 3.023 1.55-.498 1.527-.763 3.039-.763 4.526 0 .688.038 1.36.109 2.018-.76.301-1.54.643-2.333 1.04-.247.123-.347.424-.224.671.089.175.265.276.448.276z"/><path d="m31.54 15.015.46-.004c.168 0 .336.002.506.006h.012c.271 0 .494-.216.5-.489.006-.276-.213-.505-.489-.511-.177-.004-.353-.006-.528-.006l-.48.004c-.275.005-.495.233-.49.509.005.273.229.491.5.491z"/></svg>