<svg id="Layer_1" enable-background="new 0 0 64 64" height="512" viewBox="0 0 64 64" width="512" xmlns="http://www.w3.org/2000/svg"><path d="m54 34.015c0 5.36-2.18 9.83-5.99 12.97-.01.01-.01.02-.01.02-3.86 3.18-9.38 5.01-16 5.01s-12.14-1.83-16-5.01c0 0 0-.01-.01-.02-3.81-3.14-5.99-7.61-5.99-12.97 0-3.36 1.28-6.83 3.79-10.34-1.12-.88-3.79-3.76-3.79-11.14 0-.27.21-.49.47-.5.05 0 .24-.01.53-.02h.01c2.29-.09 10.98-.18 13.67 2.86.02.01.03.03.04.04 1.71-.55 3.42-.76 4.73-.89h5.13c1.31.13 3.02.34 4.72.89 0 0 .01.01.02.01h.01c2.46-2.64 9.97-2.91 12.94-2.91.29 0 .54 0 .74.01.25 0 .42.01.47.01.27.01.48.23.48.5 0 6.85-2.53 9.93-3.77 11.03 2.53 3.45 3.81 6.96 3.81 10.45z" fill="#ffb56d"/><path d="m15.002 22.506s-3-4.118-3-7.993c0 0 4.514 1.012 7.498 3.996 0 0-2.498 1.517-4.498 3.997" fill="#ff8a80"/><path d="m15.99 46.985c-3.81-3.14-5.99-7.61-5.99-12.97 0-3.36 1.28-6.83 3.79-10.34-1.75 3.61-2.37 6.86-2.37 9.85 0 7.55 4.3 13.12 4.57 13.46z" fill="#ffe0b2"/><path d="m48.998 22.506s3-4.118 3-7.993c0 0-4.514 1.012-7.498 3.996 0 0 2.498 1.517 4.498 3.997" fill="#ff8a80"/><path d="m54 34.015c0 5.36-2.18 9.83-5.99 12.97.27-.34 4.57-5.91 4.57-13.46 0-2.99-.64-6.35-2.39-9.96 2.53 3.45 3.81 6.96 3.81 10.45z" fill="#f2883f"/><path d="m53.01 12.025c-6.35 1.16-8.44 4.29-9.09 5.12-1.94-1.28-4.3-2.12-4.59-2.22 2.46-2.64 9.97-2.91 12.94-2.91.29 0 .73.01.74.01z" fill="#f2883f"/><path d="m24.68 14.875v.05c-.25.08-2.64.92-4.6 2.22-.65-.83-2.73-3.98-9.07-5.13 2.29-.09 10.98-.18 13.67 2.86z" fill="#f2883f"/><path d="m45 40c0 3.866-5.82 7-13 7s-13-3.134-13-7 5.82-7 13-7 13 3.134 13 7" fill="#ffe0b2"/><g fill="#ff8a80"><path d="m39.5 32.031c-.063 0-.125-.012-.185-.035-.217-.087-5.315-2.172-5.315-6.996 0-1.654 1.346-3 3-3 1.042 0 1.962.534 2.5 1.344.538-.81 1.458-1.344 2.5-1.344 1.654 0 3 1.346 3 3 0 4.824-5.098 6.909-5.315 6.996-.06.024-.122.035-.185.035z"/><path d="m24.5 32.031c-.063 0-.125-.012-.185-.035-.217-.087-5.315-2.172-5.315-6.996 0-1.654 1.346-3 3-3 1.042 0 1.962.534 2.5 1.344.538-.81 1.458-1.344 2.5-1.344 1.654 0 3 1.346 3 3 0 4.824-5.098 6.909-5.315 6.996-.06.024-.122.035-.185.035z"/><path d="m36 34c0 2.41-3.6 4-4 4-.19 0-1.1-.36-2-1h-.01v-.01c-1-.69-1.99-1.73-1.99-2.99 0-2 2.26-2 4-2s4 0 4 2z"/></g><path d="m29.99 36.99c-1-.69-1.99-1.73-1.99-2.99 0-2 2.26-2 4-2 0 0-2.46.32-3 2s.84 2.87.99 2.99z" fill="#fff"/><path d="m56.224 37.068c-.792-.396-1.572-.74-2.332-1.041.07-.657.108-1.329.108-2.016 0-1.51-.255-3.024-.732-4.535 1.012-.444 2.026-.954 2.992-1.54.236-.143.311-.451.167-.688-.143-.235-.45-.309-.687-.168-.897.546-1.847 1.024-2.799 1.443-.635-1.662-1.548-3.318-2.753-4.959 1.244-1.1 3.776-4.184 3.776-11.038 0-.27-.213-.49-.482-.5-.467-.016-11.15-.361-14.162 2.891-1.713-.554-3.419-.771-4.736-.898-.268-.017-.519.175-.545.45-.027.274.175.519.45.546 2.025.195 3.47.482 4.831.957 1.18.412 2.526 1.074 4 1.967.081.049.17.072.258.072.149 0 .296-.066.395-.192.241-.308.527-.604.903-.931.208-.182.23-.497.048-.705-.183-.21-.498-.231-.706-.049-.289.252-.533.49-.749.729-1.121-.66-2.141-1.171-3.1-1.558 1.507-1.253 4.726-1.852 7.727-2.115-.612.245-1.232.537-1.833.896-.237.142-.314.448-.172.686.094.156.26.243.43.243.087 0 .176-.022.256-.071 2.367-1.415 5.056-1.788 6.181-1.884-.138 6.822-2.894 9.384-3.754 10.017-.108.079-.18.198-.199.331s.016.268.098.375c1.296 1.699 2.272 3.411 2.923 5.124-3.887 1.561-7.553 2.144-7.601 2.151-.273.042-.46.298-.418.57.038.247.251.424.494.424.025 0 .051-.002.077-.006.202-.031 3.838-.606 7.769-2.183.426 1.387.653 2.771.653 4.148 0 .561-.036 1.107-.086 1.647-4.615-1.647-8.241-1.679-8.415-1.649-.276 0-.499.224-.499.5.001.276.225.499.5.499.057 0 3.713.024 8.271 1.671-1.357 8.671-9.348 14.332-20.771 14.332s-19.414-5.661-20.772-14.332c4.558-1.647 8.214-1.671 8.271-1.671.276 0 .5-.224.5-.499s-.223-.5-.499-.501c-.196.004-3.807.015-8.415 1.652-.049-.54-.085-1.088-.085-1.649 0-1.355.238-2.736.686-4.135 3.919 1.567 7.537 2.14 7.738 2.171.026.004.051.006.077.006.243 0 .456-.177.494-.424.042-.273-.145-.528-.418-.57-.048-.007-3.689-.585-7.561-2.134.651-1.671 1.613-3.366 2.886-5.074.087-.117.119-.268.086-.41-.033-.143-.127-.265-.256-.332-.037-.02-3.574-1.959-3.725-10.05 1.12.094 3.867.462 6.247 1.886.081.049.169.071.256.071.17 0 .336-.087.43-.243.142-.237.064-.544-.172-.686-.689-.412-1.405-.739-2.108-1.003 3.112.217 6.516.811 8.04 2.207-.938.38-1.943.885-3.098 1.567-.234-.261-.497-.494-.753-.722-.207-.182-.524-.165-.706.042-.183.207-.164.523.042.706.342.304.665.59.891.912.097.139.252.214.41.214.088 0 .178-.023.258-.072 1.545-.936 2.807-1.561 3.969-1.967 1.36-.476 2.806-.762 4.834-.957.275-.027.477-.271.45-.546-.026-.275-.277-.466-.545-.45-1.315.127-3.018.344-4.726.894-2.999-3.486-13.783-2.914-14.253-2.886-.266.016-.473.236-.473.5 0 7.387 2.674 10.266 3.792 11.146-1.172 1.633-2.064 3.259-2.694 4.869-.965-.423-1.929-.908-2.839-1.461-.237-.143-.543-.067-.687.168-.144.236-.068.544.167.688.975.593 2 1.106 3.022 1.553-.496 1.525-.761 3.035-.761 4.522 0 .688.038 1.36.109 2.018-.76.3-1.54.643-2.333 1.04-.247.124-.347.424-.224.671.089.174.265.276.448.276.075 0 .151-.017.223-.053.693-.347 1.377-.65 2.048-.92 1.517 9.064 9.853 14.968 21.729 14.968s20.212-5.903 21.728-14.968c.671.27 1.356.573 2.048.92.072.036.148.053.223.053.184 0 .36-.101.448-.276.124-.248.024-.548-.223-.672z"/><path d="m28.106 33.325c-5.459.902-9.106 3.558-9.106 6.675 0 3.925 5.71 7 13 7s13-3.075 13-7c0-3.117-3.647-5.773-9.106-6.675-.176-.542-.581-.92-1.222-1.118-.677-.21-1.53-.204-2.523-.209h-.299c-.984.005-1.846-.001-2.522.209-.641.197-1.046.576-1.222 1.118zm15.894 6.675c0 3.252-5.495 6-12 6s-12-2.748-12-6c0-2.526 3.276-4.805 8.031-5.649.264 1.716 2.366 3.123 3.469 3.526v2.136c-3.905-.142-6.703-1.875-6.732-1.894-.233-.144-.542-.077-.69.155-.147.233-.079.542.154.69.133.084 3.299 2.063 7.768 2.063 4.468 0 7.649-1.978 7.783-2.062.233-.147.303-.456.156-.689-.147-.232-.456-.304-.689-.156-.029.018-2.842 1.752-6.749 1.893v-2.13c1.112-.391 3.211-1.778 3.469-3.532 4.754.844 8.03 3.123 8.03 5.649zm-12.292-7.003h.142.3c.872-.002 1.694-.001 2.226.164.455.141.624.367.624.836 0 1.521-2.531 2.944-2.98 3.001-.502-.066-3.02-1.477-3.02-3.001 0-.469.169-.695.624-.836.503-.156 1.266-.164 2.084-.164z"/><path d="m39.315 31.996c.06.023.122.035.185.035s.125-.012.185-.035c.217-.087 5.315-2.172 5.315-6.996 0-1.654-1.346-3-3-3-1.042 0-1.962.534-2.5 1.344-.538-.81-1.458-1.344-2.5-1.344-1.654 0-3 1.346-3 3 0 4.824 5.098 6.909 5.315 6.996zm-2.315-8.996c1.103 0 2 .897 2 2 0 .276.224.5.5.5s.5-.224.5-.5c0-1.103.897-2 2-2s2 .897 2 2c0 3.664-3.631 5.579-4.5 5.984-.871-.403-4.5-2.309-4.5-5.984 0-1.103.897-2 2-2z"/><path d="m27 22c-1.042 0-1.962.534-2.5 1.344-.538-.81-1.458-1.344-2.5-1.344-1.654 0-3 1.346-3 3 0 4.824 5.098 6.909 5.315 6.996.06.023.122.035.185.035s.125-.012.185-.035c.217-.087 5.315-2.172 5.315-6.996 0-1.654-1.346-3-3-3zm-2.5 8.984c-.871-.403-4.5-2.309-4.5-5.984 0-1.103.897-2 2-2s2 .897 2 2c0 .276.224.5.5.5s.5-.224.5-.5c0-1.103.897-2 2-2s2 .897 2 2c0 3.664-3.631 5.579-4.5 5.984z"/><path d="m31.54 15.015.46-.004c.168 0 .337.002.506.006h.011c.271 0 .494-.217.5-.488.006-.276-.212-.505-.489-.512-.177-.004-.353-.006-.528-.006l-.479.004c-.276.005-.496.233-.491.51.005.273.228.49.5.49z"/></svg>